<svg width="11" height="18" viewBox="0 0 11 18" fill="none" xmlns="http://www.w3.org/2000/svg">
<path d="M8.625 0.75H2.625C2.12772 0.75 1.65081 0.947544 1.29917 1.29917C0.947544 1.65081 0.75 2.12772 0.75 2.625V15.375C0.75 15.8723 0.947544 16.3492 1.29917 16.7008C1.65081 17.0525 2.12772 17.25 2.625 17.25H8.625C9.12228 17.25 9.59919 17.0525 9.95082 16.7008C10.3025 16.3492 10.5 15.8723 10.5 15.375V2.625C10.5 2.12772 10.3025 1.65081 9.95082 1.29917C9.59919 0.947544 9.12228 0.75 8.625 0.75ZM5.625 16.5C5.0025 16.5 4.5 15.9975 4.5 15.375C4.5 14.7525 5.0025 14.25 5.625 14.25C6.2475 14.25 6.75 14.7525 6.75 15.375C6.75 15.9975 6.2475 16.5 5.625 16.5ZM9 13.5H2.25V3H9V13.5Z" fill="black"/>
</svg>
