<svg width="16" height="12" viewBox="0 0 16 12" fill="none" xmlns="http://www.w3.org/2000/svg">
<path d="M2 12C1.5875 12 1.2345 11.8533 0.941 11.5597C0.647 11.2657 0.5 10.9125 0.5 10.5V1.5C0.5 1.0875 0.647 0.7345 0.941 0.441C1.2345 0.147 1.5875 0 2 0H14C14.4125 0 14.7658 0.147 15.0598 0.441C15.3533 0.7345 15.5 1.0875 15.5 1.5V10.5C15.5 10.9125 15.3533 11.2657 15.0598 11.5597C14.7658 11.8533 14.4125 12 14 12H2ZM14 3L8.39375 6.50625C8.33125 6.54375 8.2655 6.57175 8.1965 6.59025C8.128 6.60925 8.0625 6.61875 8 6.61875C7.9375 6.61875 7.872 6.60925 7.8035 6.59025C7.7345 6.57175 7.66875 6.54375 7.60625 6.50625L2 3V10.5H14V3ZM8 5.25L14 1.5H2L8 5.25ZM2 3.1875V2.08125V2.1V2.09025V3.1875Z" fill="black"/>
</svg>
